<?xml version="1.0" encoding="utf-8"?>
<!-- Generator: Adobe Illustrator 19.2.1, SVG Export Plug-In . SVG Version: 6.00 Build 0)  -->
<svg version="1.1" id="Layer_1" xmlns="http://www.w3.org/2000/svg" xmlns:xlink="http://www.w3.org/1999/xlink" x="0px" y="0px"
	 viewBox="0 0 128.1 19.4" style="enable-background:new 0 0 128.1 19.4;" xml:space="preserve">
<g>
	<g>
		<path d="M0,4.8h3v1.6c0.5-1,1.7-1.9,3.3-1.9c1.4,0,2.5,0.6,3,1.9c0.9-1.3,2.2-1.9,3.6-1.9c2,0,3.5,1.2,3.5,4.1v6.8h-2.9V9
			c0-1.4-0.6-2-1.7-2c-1.1,0-2.1,0.7-2.1,2.2v6.3H6.7V9C6.7,7.6,6,7,5,7C3.9,7,3,7.7,3,9.2v6.3H0V4.8z"/>
		<path d="M18.1,10.3v-0.2c0-3.4,2.4-5.5,5.5-5.5c2.7,0,5.2,1.6,5.2,5.4v0.8h-7.7c0.1,1.8,1,2.8,2.6,2.8c1.4,0,2-0.6,2.2-1.5h2.8
			c-0.3,2.3-2.2,3.6-5.1,3.6C20.5,15.7,18.1,13.7,18.1,10.3z M25.9,9c-0.1-1.6-0.9-2.4-2.3-2.4c-1.3,0-2.2,0.9-2.4,2.4H25.9z"/>
		<path d="M30.1,12.1h2.7c0.1,1,0.6,1.5,1.9,1.5c1.1,0,1.7-0.4,1.7-1.2c0-0.7-0.6-1-2.2-1.3c-2.8-0.4-3.9-1.2-3.9-3.3
			c0-2.2,2-3.3,4.2-3.3c2.4,0,4.1,0.9,4.4,3.3h-2.7C36,7,35.5,6.6,34.5,6.6c-1,0-1.5,0.4-1.5,1.1c0,0.7,0.5,0.9,2.1,1.2
			c2.7,0.4,4.1,1.1,4.1,3.3c0,2.3-1.7,3.5-4.5,3.5C31.8,15.7,30.2,14.4,30.1,12.1z"/>
		<path d="M40.3,12.1H43c0.1,1,0.6,1.5,1.9,1.5c1.1,0,1.7-0.4,1.7-1.2c0-0.7-0.6-1-2.2-1.3c-2.8-0.4-3.9-1.2-3.9-3.3
			c0-2.2,2-3.3,4.2-3.3c2.4,0,4.1,0.9,4.4,3.3h-2.7c-0.2-0.9-0.7-1.3-1.7-1.3c-1,0-1.5,0.4-1.5,1.1c0,0.7,0.5,0.9,2.1,1.2
			c2.7,0.4,4.1,1.1,4.1,3.3c0,2.3-1.7,3.5-4.5,3.5C42,15.7,40.4,14.4,40.3,12.1z"/>
		<path d="M50.6,12.5c0-2.5,2.3-3.4,5.5-3.4h1.2V8.7c0-1.3-0.4-2-1.7-2c-1.2,0-1.7,0.6-1.8,1.5H51c0.2-2.5,2.2-3.6,4.8-3.6
			c2.6,0,4.5,1.1,4.5,3.9v6.9h-2.9v-1.3c-0.6,0.9-1.5,1.5-3.2,1.5C52.2,15.7,50.6,14.8,50.6,12.5z M57.3,11.7v-0.9h-1.1
			c-1.7,0-2.7,0.4-2.7,1.5c0,0.8,0.5,1.3,1.5,1.3C56.3,13.6,57.3,12.9,57.3,11.7z"/>
		<path d="M62.2,15.7h2.9c0.2,0.9,0.9,1.5,2.4,1.5c1.8,0,2.7-0.9,2.7-2.6V13c-0.6,1-1.9,2-3.4,2c-2.6,0-4.6-1.9-4.6-5.1V9.8
			c0-3.1,2-5.2,4.7-5.2c1.7,0,2.8,0.8,3.4,1.8V4.8h2.9v9.8c0,3.2-2.1,4.8-5.6,4.8C64,19.4,62.5,17.9,62.2,15.7z M70.2,9.9V9.7
			c0-1.8-1-2.9-2.6-2.9c-1.6,0-2.6,1.2-2.6,2.9v0.2c0,1.8,1,2.9,2.5,2.9C69.2,12.8,70.2,11.7,70.2,9.9z"/>
		<path d="M75,10.3v-0.2c0-3.4,2.4-5.5,5.5-5.5c2.7,0,5.2,1.6,5.2,5.4v0.8H78c0.1,1.8,1,2.8,2.6,2.8c1.4,0,2-0.6,2.2-1.5h2.8
			c-0.3,2.3-2.2,3.6-5.1,3.6C77.4,15.7,75,13.7,75,10.3z M82.8,9c-0.1-1.6-0.9-2.4-2.3-2.4c-1.3,0-2.2,0.9-2.4,2.4H82.8z"/>
		<path d="M92.1,0h3v6.5c0.5-1.1,1.7-1.9,3.5-1.9c2.1,0,3.6,1.3,3.6,4.1v6.8h-3V9.1c0-1.4-0.6-2.1-1.9-2.1c-1.3,0-2.2,0.8-2.2,2.3
			v6.1h-3V0z"/>
		<path d="M104.6,11.7V4.8h2.9v6.5c0,1.4,0.6,2.1,1.9,2.1c1.2,0,2.2-0.8,2.2-2.3V4.8h2.9v10.6h-2.9v-1.7c-0.6,1.1-1.6,1.9-3.4,1.9
			C106.1,15.7,104.6,14.5,104.6,11.7z"/>
		<path d="M120.1,13.8v1.7h-3V0h3v6.5c0.6-1,1.8-1.9,3.4-1.9c2.6,0,4.6,1.9,4.6,5.5v0.2c0,3.5-2,5.5-4.6,5.5
			C121.8,15.7,120.6,14.9,120.1,13.8z M125.1,10.2v-0.2c0-2.2-1.1-3.2-2.5-3.2c-1.5,0-2.6,1.1-2.6,3.2v0.2c0,2.1,1,3.2,2.6,3.2
			C124.2,13.4,125.1,12.3,125.1,10.2z"/>
	</g>
</g>
</svg>
